# ProBuilder 4.0.5
# https://unity3d.com/unity/features/worldbuilding/probuilder
# 1/23/2020 1:07:12 PM

mtllib ./Door_3.mtl
o Door 3

g Door 3
v 2 0 0.06244993
v 2 0.25 0.06244993
v 1.65625 0 0.06244993
v 1.65625 0.25 0.06244993
v 2 2.75 0.06244993
v 1.65625 2.75 0.06244993
v 2 3 0.06244993
v 1.65625 3 0.06244993
v 0.3125 0 0.06244993
v 0.3125 0.25 0.06244993
v 1.603575 0.348 0.06244993
v 1.603575 2.652 0.06244993
v 0.365175 0.348 0.06244993
v 0.365175 2.652 0.06244993
v 0.3125 2.75 0.06244993
v 0.3125 3 0.06244993
v 0 0 0.06244993
v 0 0.25 0.06244993
v 0 2.75 0.06244993
v 0 3 0.06244993
v 1.629375 0.3000001 0.04682493
v 1.629375 2.7 0.04682493
v 0.339375 0.3000001 0.04682493
v 0.339375 2.7 0.04682493
v 2 2.75 0
v 2 3 0
v 2 0.25 0
v 2 0 0
v 0 3 0
v 0 2.75 0
v 0 0.25 0
v 0 0 0
v 2 0 -0.06255007
v 2 0.25 -0.06255007
v 1.65625 0 -0.06255007
v 1.65625 0.25 -0.06255007
v 2 2.75 -0.06255007
v 1.65625 2.75 -0.06255007
v 2 3 -0.06255007
v 1.65625 3 -0.06255007
v 0.3125 0 -0.06255007
v 0.3125 0.25 -0.06255007
v 1.603575 0.348 -0.06255007
v 1.603575 2.652 -0.06255007
v 0.365175 0.348 -0.06255007
v 0.365175 2.652 -0.06255007
v 0.3125 2.75 -0.06255007
v 0.3125 3 -0.06255007
v 0 0 -0.06255007
v 0 0.25 -0.06255007
v 0 2.75 -0.06255007
v 0 3 -0.06255007
v 1.629375 0.3000001 -0.04692507
v 1.629375 2.7 -0.04692507
v 0.339375 0.3000001 -0.04692507
v 0.339375 2.7 -0.04692507

vt 0 0
vt 0 0.25
vt -0.34375 0
vt -0.34375 0.25
vt 0 2.75
vt -0.34375 2.75
vt 0 3
vt -0.34375 3
vt -1.6875 0
vt -1.6875 0.25
vt -0.396425 0.348
vt -0.396425 2.652
vt -1.634825 0.348
vt -1.634825 2.652
vt -1.6875 2.75
vt -1.6875 3
vt -2 0
vt -2 0.25
vt -2 2.75
vt -2 3
vt -0.2241386 0.25
vt -0.2241386 2.75
vt -0.2653554 0.3000001
vt -0.2653554 2.7
vt -1.6875 0.2119997
vt -0.34375 0.2119997
vt -1.660625 0.2709621
vt -0.370625 0.2709621
vt -0.34375 2.331998
vt -1.6875 2.331998
vt -0.370625 2.273035
vt -1.660625 2.273035
vt -1.100317 2.75
vt -1.100317 0.25
vt -1.0591 2.7
vt -1.0591 0.3000001
vt -0.2118631 0.3000001
vt -0.2118631 2.7
vt -0.2523872 0.348
vt -0.2523872 2.652
vt -1.660625 0.2343633
vt -0.370625 0.2343633
vt -1.634825 0.2916395
vt -0.396425 0.2916395
vt -0.370625 2.279768
vt -1.660625 2.279768
vt -0.396425 2.222492
vt -1.634825 2.222492
vt -1.081349 2.7
vt -1.081349 0.3000001
vt -1.040825 2.652
vt -1.040825 0.348
vt 0.1249 2.75
vt 0.1249 3
vt 0.1249 0.25
vt 0.1249 0
vt -0.1249 3
vt -0.1249 2.75
vt -0.1249 0.25
vt -0.1249 0
vt 0.34375 0
vt 0.34375 0.25
vt 0.34375 2.75
vt 0.34375 3
vt 1.6875 0
vt 1.6875 0.25
vt 0.396425 0.348
vt 0.396425 2.652
vt 1.634825 0.348
vt 1.634825 2.652
vt 1.6875 2.75
vt 1.6875 3
vt 2 0
vt 2 0.25
vt 2 2.75
vt 2 3
vt 0.2241386 0.25
vt 0.2241386 2.75
vt 0.2653554 0.3000001
vt 0.2653554 2.7
vt 1.6875 0.2119997
vt 0.34375 0.2119997
vt 1.660625 0.2709621
vt 0.370625 0.2709621
vt 0.34375 2.331998
vt 1.6875 2.331998
vt 0.370625 2.273035
vt 1.660625 2.273035
vt 1.100317 2.75
vt 1.100317 0.25
vt 1.0591 2.7
vt 1.0591 0.3000001
vt 0.2118631 0.3000001
vt 0.2118631 2.7
vt 0.2523872 0.348
vt 0.2523872 2.652
vt 1.660625 0.2343633
vt 0.370625 0.2343633
vt 1.634825 0.2916395
vt 0.396425 0.2916395
vt 0.370625 2.279768
vt 1.660625 2.279768
vt 0.396425 2.222492
vt 1.634825 2.222492
vt 1.081349 2.7
vt 1.081349 0.3000001
vt 1.040825 2.652
vt 1.040825 0.348

vn 0 0 1
vn -0.5026202 0 0.8645074
vn 0 0.2982746 0.9544801
vn 0 -0.298274 0.9544804
vn 0.5026202 0 0.8645074
vn 0.5180263 0 0.8553647
vn 0 -0.3095341 0.9508883
vn 0 0.3095348 0.9508881
vn -0.5180263 0 0.8553646
vn 1 0 0
vn -1 0 0
vn 0 0 -1
vn -0.5026202 0 -0.8645074
vn 0 0.2982746 -0.9544801
vn 0 -0.298274 -0.9544804
vn 0.5026202 0 -0.8645074
vn 0.5180263 0 -0.8553646
vn 0 -0.3095341 -0.9508883
vn 0 0.3095348 -0.9508881
vn -0.5180263 0 -0.8553646

g Door 3
usemtl Door_Mat
f 1/1/1 2/2/1 4/4/1 3/3/1
f 2/2/1 5/5/1 6/6/1 4/4/1
f 5/5/1 7/7/1 8/8/1 6/6/1
f 3/3/1 4/4/1 10/10/1 9/9/1
f 11/11/1 12/12/1 14/14/1 13/13/1
f 6/6/1 8/8/1 16/16/1 15/15/1
f 9/9/1 10/10/1 18/18/1 17/17/1
f 10/10/1 15/15/1 19/19/1 18/18/1
f 15/15/1 16/16/1 20/20/1 19/19/1
f 4/21/2 6/22/2 22/24/2 21/23/2
f 10/25/3 4/26/3 21/28/3 23/27/3
f 6/29/4 15/30/4 24/32/4 22/31/4
f 15/33/5 10/34/5 23/36/5 24/35/5
f 21/37/6 22/38/6 12/40/6 11/39/6
f 23/41/7 21/42/7 11/44/7 13/43/7
f 22/45/8 24/46/8 14/48/8 12/47/8
f 24/49/9 23/50/9 13/52/9 14/51/9
f 5/5/10 25/53/10 26/54/10 7/7/10
f 2/2/10 27/55/10 25/53/10 5/5/10
f 1/1/10 28/56/10 27/55/10 2/2/10
f 20/7/11 29/57/11 30/58/11 19/5/11
f 19/5/11 30/58/11 31/59/11 18/2/11
f 18/2/11 31/59/11 32/60/11 17/1/11
f 35/61/12 36/62/12 34/2/12 33/1/12
f 36/62/12 38/63/12 37/5/12 34/2/12
f 38/63/12 40/64/12 39/7/12 37/5/12
f 41/65/12 42/66/12 36/62/12 35/61/12
f 45/69/12 46/70/12 44/68/12 43/67/12
f 47/71/12 48/72/12 40/64/12 38/63/12
f 49/73/12 50/74/12 42/66/12 41/65/12
f 50/74/12 51/75/12 47/71/12 42/66/12
f 51/75/12 52/76/12 48/72/12 47/71/12
f 53/79/13 54/80/13 38/78/13 36/77/13
f 55/83/14 53/84/14 36/82/14 42/81/14
f 54/87/15 56/88/15 47/86/15 38/85/15
f 56/91/16 55/92/16 42/90/16 47/89/16
f 43/95/17 44/96/17 54/94/17 53/93/17
f 45/99/18 43/100/18 53/98/18 55/97/18
f 44/103/19 46/104/19 56/102/19 54/101/19
f 46/107/20 45/108/20 55/106/20 56/105/20
f 26/57/10 25/58/10 37/5/10 39/7/10
f 25/58/10 27/59/10 34/2/10 37/5/10
f 27/59/10 28/60/10 33/1/10 34/2/10
f 30/53/11 29/54/11 52/7/11 51/5/11
f 31/55/11 30/53/11 51/5/11 50/2/11
f 32/56/11 31/55/11 50/2/11 49/1/11

