# ProBuilder 4.0.5
# https://unity3d.com/unity/features/worldbuilding/probuilder
# 1/23/2020 1:07:04 PM

mtllib ./Door_2.mtl
o Door 2

g Door 2
v 0 1.3125 -0.25
v -0.3125 1.3125 -0.25
v 0 1.5 -0.25
v -0.3125 1.5 -0.25
v 0 2.6875 -0.25
v 0 3 -0.25
v -0.3125 2.6875 -0.25
v -0.3125 3 -0.25
v -0.3408765 1.559906 -0.25
v -0.3408765 2.627594 -0.25
v -0.8466235 1.559906 -0.25
v -0.8466235 2.627594 -0.25
v -1.6875 1.3125 -0.25
v -2 1.3125 -0.25
v -1.6875 1.5 -0.25
v -2 1.5 -0.25
v -1.6875 2.6875 -0.25
v -1.6875 3 -0.25
v -2 2.6875 -0.25
v -2 3 -0.25
v -0.875 1.3125 -0.25
v -1.0625 1.3125 -0.25
v -0.875 1.5 -0.25
v -1.0625 1.5 -0.25
v -1.099 2.61815 -0.25
v -1.651 2.61815 -0.25
v -1.651 1.56935 -0.25
v -1.099 1.56935 -0.25
v -0.875 2.6875 -0.25
v -0.875 3 -0.25
v -1.0625 3 -0.25
v -1.0625 2.6875 -0.25
v -0.3303401 1.537663 -0.21875
v -0.3303401 2.649837 -0.21875
v -0.8571599 1.537663 -0.21875
v -0.8571599 2.649837 -0.21875
v -1.0875 1.5475 -0.21875
v -1.0875 2.64 -0.21875
v -1.6625 2.64 -0.21875
v -1.6625 1.5475 -0.21875
v 0 0 -0.25
v -0.3125 0 -0.25
v 0 0.25 -0.25
v -0.3125 0.25 -0.25
v -0.875 0.25 -0.25
v -0.875 0 -0.25
v -0.3664001 0.29165 -0.25
v -0.3664001 1.27085 -0.25
v -0.8848 1.27085 -0.25
v -0.8848 0.29165 -0.25
v -1.6875 0 -0.25
v -1.6875 0.25 -0.25
v -2 0.25 -0.25
v -2 0 -0.25
v -1.0576 1.27085 -0.25
v -1.0576 0.29165 -0.25
v -1.0625 0 -0.25
v -1.0625 0.25 -0.25
v -1.6336 1.27085 -0.25
v -1.6336 0.29165 -0.25
v -0.34 0.27125 -0.21875
v -0.34 1.29125 -0.21875
v -0.88 1.29125 -0.21875
v -0.88 0.27125 -0.21875
v -1.06 1.29125 -0.21875
v -1.06 0.27125 -0.21875
v -1.66 1.29125 -0.21875
v -1.66 0.27125 -0.21875
v 0 1.5 -0.1251
v 0 2.6875 -0.1251
v 0 3 -0.1251
v 0 0.25 -0.1251
v 0 1.3125 -0.1251
v 0 0 -0.1251
v -2 3 -0.1251
v -2 2.6875 -0.1251
v -2 1.5 -0.1251
v -2 1.3125 -0.1251
v -2 0.25 -0.1251
v -2 0 -0.1251
v 0 1.3125 0
v -0.3125 1.3125 0
v 0 1.5 0
v -0.3125 1.5 0
v 0 2.6875 0
v 0 3 0
v -0.3125 2.6875 0
v -0.3125 3 0
v -0.3408765 1.559906 0
v -0.3408765 2.627594 0
v -0.8466235 1.559906 0
v -0.8466235 2.627594 0
v -1.6875 1.3125 0
v -2 1.3125 0
v -1.6875 1.5 0
v -2 1.5 0
v -1.6875 2.6875 0
v -1.6875 3 0
v -2 2.6875 0
v -2 3 0
v -0.875 1.3125 0
v -1.0625 1.3125 0
v -0.875 1.5 0
v -1.0625 1.5 0
v -1.099 2.61815 0
v -1.651 2.61815 0
v -1.651 1.56935 0
v -1.099 1.56935 0
v -0.875 2.6875 0
v -0.875 3 0
v -1.0625 3 0
v -1.0625 2.6875 0
v -0.3303401 1.537663 -0.03125
v -0.3303401 2.649837 -0.03125
v -0.8571599 1.537663 -0.03125
v -0.8571599 2.649837 -0.03125
v -1.0875 1.5475 -0.03125
v -1.0875 2.64 -0.03125
v -1.6625 2.64 -0.03125
v -1.6625 1.5475 -0.03125
v 0 0 0
v -0.3125 0 0
v 0 0.25 0
v -0.3125 0.25 0
v -0.875 0.25 0
v -0.875 0 0
v -0.3664001 0.29165 0
v -0.3664001 1.27085 0
v -0.8848 1.27085 0
v -0.8848 0.29165 0
v -1.6875 0 0
v -1.6875 0.25 0
v -2 0.25 0
v -2 0 0
v -1.0576 1.27085 0
v -1.0576 0.29165 0
v -1.0625 0 0
v -1.0625 0.25 0
v -1.6336 1.27085 0
v -1.6336 0.29165 0
v -0.34 0.27125 -0.03125
v -0.34 1.29125 -0.03125
v -0.88 1.29125 -0.03125
v -0.88 0.27125 -0.03125
v -1.06 1.29125 -0.03125
v -1.06 0.27125 -0.03125
v -1.66 1.29125 -0.03125
v -1.66 0.27125 -0.03125
v 0 1.5 -0.1249
v 0 2.6875 -0.1249
v 0 3 -0.1249
v 0 0.25 -0.1249
v 0 1.3125 -0.1249
v 0 0 -0.1249
v -2 3 -0.1249
v -2 2.6875 -0.1249
v -2 1.5 -0.1249
v -2 1.3125 -0.1249
v -2 0.25 -0.1249
v -2 0 -0.1249

vt 0 1.3125
vt 0.3125 1.3125
vt 0 1.5
vt 0.3125 1.5
vt 0 2.6875
vt 0 3
vt 0.3125 2.6875
vt 0.3125 3
vt 0.3408765 1.559906
vt 0.3408765 2.627594
vt 0.8466235 1.559906
vt 0.8466235 2.627594
vt 1.6875 1.3125
vt 2 1.3125
vt 1.6875 1.5
vt 2 1.5
vt 1.6875 2.6875
vt 1.6875 3
vt 2 2.6875
vt 2 3
vt 0.875 1.3125
vt 1.0625 1.3125
vt 0.875 1.5
vt 1.0625 1.5
vt 1.099 2.61815
vt 1.651 2.61815
vt 1.651 1.56935
vt 1.099 1.56935
vt 0.875 2.6875
vt 0.875 3
vt 1.0625 3
vt 1.0625 2.6875
vt 0.1549317 1.5
vt 0.1549317 2.6875
vt 0.1909155 1.537663
vt 0.1909155 2.649837
vt 0.875 1.154371
vt 0.3125 1.154371
vt 0.8571599 1.20331
vt 0.3303401 1.20331
vt 0.3125 2.068247
vt 0.875 2.068247
vt 0.3303401 2.019308
vt 0.8571599 2.019308
vt 0.4338089 2.6875
vt 0.4338089 1.5
vt 0.3978251 2.649837
vt 0.3978251 1.537663
vt 0.0759294 1.537663
vt 0.0759294 2.649837
vt 0.1089078 1.559906
vt 0.1089078 2.627594
vt -0.8571599 -0.8662194
vt -0.3303401 -0.8662194
vt -0.8466235 -0.9045774
vt -0.3408765 -0.9045774
vt 0.3303401 1.562079
vt 0.8571599 1.562079
vt 0.3408765 1.523721
vt 0.8466235 1.523721
vt 0.3034686 2.649837
vt 0.3034686 1.537663
vt 0.2704901 2.627594
vt 0.2704901 1.559906
vt 0.6637381 1.5
vt 0.6637381 2.6875
vt 0.7037576 1.5475
vt 0.7037576 2.64
vt 1.0625 2.245185
vt 1.6875 2.245185
vt 1.0875 2.188328
vt 1.6625 2.188328
vt 1.054172 2.6875
vt 1.054172 1.5
vt 1.014153 2.64
vt 1.014153 1.5475
vt 1.6875 1.253126
vt 1.0625 1.253126
vt 1.6625 1.309984
vt 1.0875 1.309984
vt 0.346249 1.5475
vt 0.346249 2.64
vt 0.3795478 1.56935
vt 0.3795478 2.61815
vt 1.0875 1.538394
vt 1.6625 1.538394
vt 1.099 1.500263
vt 1.651 1.500263
vt 0.603484 2.64
vt 0.603484 1.5475
vt 0.5701851 2.61815
vt 0.5701851 1.56935
vt -1.6625 -0.861141
vt -1.0875 -0.861141
vt -1.651 -0.8992722
vt -1.099 -0.8992722
vt 0 0
vt 0.3125 0
vt 0 0.25
vt 0.3125 0.25
vt 0.875 0.25
vt 0.875 0
vt 0.3664001 0.29165
vt 0.3664001 1.27085
vt 0.8848 1.27085
vt 0.8848 0.29165
vt 1.6875 0
vt 1.6875 0.25
vt 2 0.25
vt 2 0
vt 1.0576 1.27085
vt 1.0576 0.29165
vt 1.0625 0
vt 1.0625 0.25
vt 1.6336 1.27085
vt 1.6336 0.29165
vt 0.2064463 0.25
vt 0.2064463 1.3125
vt 0.2480734 0.27125
vt 0.2480734 1.29125
vt -0.3125 -0.7380322
vt -0.875 -0.7380322
vt -0.34 -0.7002416
vt -0.88 -0.7002416
vt 0.875 0.1405776
vt 0.3125 0.1405776
vt 0.88 0.1783681
vt 0.34 0.1783681
vt -1.0625 -0.7380322
vt -1.06 -0.7002416
vt 1.0625 0.1405776
vt 1.06 0.1783681
vt -1.6875 -0.7380322
vt -1.66 -0.7002416
vt 1.11481 1.3125
vt 1.11481 0.25
vt 1.073183 1.29125
vt 1.073183 0.27125
vt 1.6875 0.1405775
vt 1.66 0.1783681
vt 0.1955438 0.27125
vt 0.1955438 1.29125
vt 0.2364525 0.29165
vt 0.2364525 1.27085
vt 0.34 0.7320122
vt 0.88 0.7320122
vt 0.3664001 0.6946929
vt 0.8848 0.6946929
vt -0.88 -0.1221071
vt -0.34 -0.1221071
vt -0.8848 -0.1594263
vt -0.3664001 -0.1594263
vt 1.06 0.7320122
vt 1.0576 0.6946929
vt -1.06 -0.1221072
vt -1.0576 -0.1594264
vt 1.66 0.7320122
vt 1.6336 0.6946929
vt 1.095134 1.29125
vt 1.095134 0.27125
vt 1.054226 1.27085
vt 1.054226 0.29165
vt -1.66 -0.1221071
vt -1.6336 -0.1594264
vt -0.1249 1.5
vt -0.1249 2.6875
vt -0.1249 3
vt -0.1249 0.25
vt -0.1249 1.3125
vt -0.1249 0
vt 0.1249 3
vt 0.1249 2.6875
vt 0.1249 1.5
vt 0.1249 1.3125
vt 0.1249 0.25
vt 0.1249 0
vt -0.3125 1.3125
vt -0.3125 1.5
vt -0.3125 2.6875
vt -0.3125 3
vt -0.3408765 1.559906
vt -0.3408765 2.627594
vt -0.8466235 1.559906
vt -0.8466235 2.627594
vt -1.6875 1.3125
vt -2 1.3125
vt -1.6875 1.5
vt -2 1.5
vt -1.6875 2.6875
vt -1.6875 3
vt -2 2.6875
vt -2 3
vt -0.875 1.3125
vt -1.0625 1.3125
vt -0.875 1.5
vt -1.0625 1.5
vt -1.099 2.61815
vt -1.651 2.61815
vt -1.651 1.56935
vt -1.099 1.56935
vt -0.875 2.6875
vt -0.875 3
vt -1.0625 3
vt -1.0625 2.6875
vt -0.1549317 1.5
vt -0.1549317 2.6875
vt -0.1909155 1.537663
vt -0.1909155 2.649837
vt -0.875 1.154371
vt -0.3125 1.154371
vt -0.8571599 1.20331
vt -0.3303401 1.20331
vt -0.3125 2.068247
vt -0.875 2.068247
vt -0.3303401 2.019308
vt -0.8571599 2.019308
vt -0.4338089 2.6875
vt -0.4338089 1.5
vt -0.3978251 2.649837
vt -0.3978251 1.537663
vt -0.07592939 1.537663
vt -0.07592939 2.649837
vt -0.1089078 1.559906
vt -0.1089078 2.627594
vt -0.8571599 0.8662193
vt -0.3303401 0.8662193
vt -0.8466235 0.9045773
vt -0.3408765 0.9045773
vt 0.3303401 -1.562079
vt 0.8571599 -1.562079
vt 0.3408765 -1.523721
vt 0.8466235 -1.523721
vt -0.3034685 2.649837
vt -0.3034685 1.537663
vt -0.2704901 2.627594
vt -0.2704901 1.559906
vt -0.6637381 1.5
vt -0.6637381 2.6875
vt -0.7037576 1.5475
vt -0.7037576 2.64
vt -1.0625 2.245185
vt -1.6875 2.245185
vt -1.0875 2.188327
vt -1.6625 2.188327
vt -1.054172 2.6875
vt -1.054172 1.5
vt -1.014153 2.64
vt -1.014153 1.5475
vt -1.6875 1.253126
vt -1.0625 1.253126
vt -1.6625 1.309984
vt -1.0875 1.309984
vt -0.346249 1.5475
vt -0.346249 2.64
vt -0.3795478 1.56935
vt -0.3795478 2.61815
vt 1.0875 -1.538394
vt 1.6625 -1.538394
vt 1.099 -1.500263
vt 1.651 -1.500263
vt -0.603484 2.64
vt -0.603484 1.5475
vt -0.5701851 2.61815
vt -0.5701851 1.56935
vt -1.6625 0.8611411
vt -1.0875 0.8611411
vt -1.651 0.8992723
vt -1.099 0.8992723
vt -0.3125 0
vt -0.3125 0.25
vt -0.875 0.25
vt -0.875 0
vt -0.3664001 0.29165
vt -0.3664001 1.27085
vt -0.8848 1.27085
vt -0.8848 0.29165
vt -1.6875 0
vt -1.6875 0.25
vt -2 0.25
vt -2 0
vt -1.0576 1.27085
vt -1.0576 0.29165
vt -1.0625 0
vt -1.0625 0.25
vt -1.6336 1.27085
vt -1.6336 0.29165
vt -0.2064464 0.25
vt -0.2064464 1.3125
vt -0.2480735 0.27125
vt -0.2480735 1.29125
vt -0.3125 0.7380322
vt -0.875 0.7380322
vt -0.34 0.7002416
vt -0.88 0.7002416
vt 0.875 -0.1405776
vt 0.3125 -0.1405776
vt 0.88 -0.1783681
vt 0.34 -0.1783681
vt -1.0625 0.7380321
vt -1.06 0.7002415
vt 1.0625 -0.1405775
vt 1.06 -0.1783681
vt -1.6875 0.7380322
vt -1.66 0.7002416
vt -1.11481 1.3125
vt -1.11481 0.25
vt -1.073183 1.29125
vt -1.073183 0.27125
vt 1.6875 -0.1405776
vt 1.66 -0.1783681
vt -0.1955438 0.27125
vt -0.1955438 1.29125
vt -0.2364525 0.29165
vt -0.2364525 1.27085
vt 0.34 -0.7320122
vt 0.88 -0.7320122
vt 0.3664001 -0.6946929
vt 0.8848 -0.6946929
vt -0.88 0.1221072
vt -0.34 0.1221072
vt -0.8848 0.1594264
vt -0.3664001 0.1594264
vt 1.06 -0.7320121
vt 1.0576 -0.6946929
vt -1.06 0.1221072
vt -1.0576 0.1594264
vt 1.66 -0.7320122
vt 1.6336 -0.6946929
vt -1.095134 1.29125
vt -1.095134 0.27125
vt -1.054226 1.27085
vt -1.054226 0.29165
vt -1.66 0.1221072
vt -1.6336 0.1594264

vn 0 0 -1
vn -0.8684472 0 -0.4957816
vn 0 0.6385499 -0.7695804
vn 0 -0.6385499 -0.7695804
vn 0.8684472 0 -0.4957816
vn 0.9475885 0 -0.3194936
vn 0 -0.8146933 -0.5798922
vn 0 0.8146933 -0.5798922
vn -0.9475887 0 -0.3194928
vn -0.7808691 0 -0.6246947
vn 0 -0.5496154 -0.8354178
vn 0.7808691 0 -0.6246947
vn 0 0.5496164 -0.8354172
vn 0.9384713 0 -0.3453574
vn 0 0.8195385 -0.5730242
vn -0.9384713 0 -0.3453574
vn 0 -0.81954 -0.5730221
vn -0.7507131 0 -0.6606283
vn 0 -0.8269264 -0.5623102
vn 0 0.8269264 -0.5623102
vn 0.7507131 0 -0.6606283
vn 0.7638956 0 -0.6453398
vn 0 0.83737 -0.5466365
vn 0 -0.8373705 -0.5466359
vn -0.7638964 0 -0.645339
vn 1 0 0
vn -1 0 0
vn 0 0 1
vn -0.8684472 0 0.4957816
vn 0 0.6385499 0.7695804
vn 0 -0.6385499 0.7695804
vn 0.8684472 0 0.4957816
vn 0.9475885 0 0.3194936
vn 0 -0.8146933 0.5798922
vn 0 0.8146933 0.5798921
vn -0.9475887 0 0.3194928
vn -0.7808691 0 0.6246947
vn 0 -0.5496154 0.8354178
vn 0.7808691 0 0.6246947
vn 0 0.5496164 0.8354172
vn 0.9384713 0 0.3453574
vn 0 0.8195385 0.5730242
vn -0.9384713 0 0.3453574
vn 0 -0.81954 0.5730221
vn -0.7507131 0 0.6606283
vn 0 -0.8269264 0.5623102
vn 0 0.8269264 0.5623102
vn 0.7507131 0 0.6606283
vn 0.7638957 0 0.6453398
vn 0 0.83737 0.5466365
vn 0 -0.8373705 0.5466359
vn -0.7638964 0 0.645339

g Door 2
usemtl Door_Mat
f 48/104/1 47/103/1 49/105/1
f 47/103/1 50/106/1 49/105/1
f 49/105/1 50/106/1 55/111/1
f 50/106/1 56/112/1 55/111/1
f 55/111/1 56/112/1 59/115/1
f 56/112/1 60/116/1 59/115/1
f 7/7/1 6/6/1 5/5/1
f 7/7/1 8/8/1 6/6/1
f 4/4/1 5/5/1 3/3/1
f 4/4/1 7/7/1 5/5/1
f 2/2/1 3/3/1 1/1/1
f 2/2/1 4/4/1 3/3/1
f 1/1/1 43/99/1 2/2/1
f 43/99/1 44/100/1 2/2/1
f 43/99/1 41/97/1 44/100/1
f 41/97/1 42/98/1 44/100/1
f 44/100/1 42/98/1 45/101/1
f 42/98/1 46/102/1 45/101/1
f 52/108/1 51/107/1 53/109/1
f 51/107/1 54/110/1 53/109/1
f 58/114/1 57/113/1 52/108/1
f 57/113/1 51/107/1 52/108/1
f 45/101/1 46/102/1 58/114/1
f 46/102/1 57/113/1 58/114/1
f 19/19/1 18/18/1 17/17/1
f 19/19/1 20/20/1 18/18/1
f 16/16/1 17/17/1 15/15/1
f 16/16/1 19/19/1 17/17/1
f 14/14/1 15/15/1 13/13/1
f 14/14/1 16/16/1 15/15/1
f 13/13/1 52/108/1 14/14/1
f 52/108/1 53/109/1 14/14/1
f 31/31/1 32/32/1 18/18/1
f 32/32/1 17/17/1 18/18/1
f 30/30/1 29/29/1 31/31/1
f 29/29/1 32/32/1 31/31/1
f 29/29/1 8/8/1 7/7/1
f 29/29/1 30/30/1 8/8/1
f 29/29/1 23/23/1 32/32/1
f 23/23/1 24/24/1 32/32/1
f 24/24/1 22/22/1 15/15/1
f 22/22/1 13/13/1 15/15/1
f 23/23/1 21/21/1 24/24/1
f 21/21/1 22/22/1 24/24/1
f 21/21/1 4/4/1 2/2/1
f 21/21/1 23/23/1 4/4/1
f 139/285/28 140/286/28 136/282/28
f 139/285/28 136/282/28 135/281/28
f 135/281/28 136/282/28 130/276/28
f 135/281/28 130/276/28 129/275/28
f 129/275/28 130/276/28 127/273/28
f 129/275/28 127/273/28 128/274/28
f 84/178/28 103/195/28 101/193/28
f 82/177/28 84/178/28 101/193/28
f 104/196/28 102/194/28 101/193/28
f 104/196/28 101/193/28 103/195/28
f 95/187/28 93/185/28 102/194/28
f 95/187/28 102/194/28 104/196/28
f 112/204/28 104/196/28 103/195/28
f 112/204/28 103/195/28 109/201/28
f 88/180/28 110/202/28 109/201/28
f 87/179/28 88/180/28 109/201/28
f 111/203/28 112/204/28 109/201/28
f 111/203/28 109/201/28 110/202/28
f 98/190/28 97/189/28 112/204/28
f 98/190/28 112/204/28 111/203/28
f 94/186/28 133/279/28 132/278/28
f 94/186/28 132/278/28 93/185/28
f 95/187/28 96/188/28 94/186/28
f 93/185/28 95/187/28 94/186/28
f 97/189/28 99/191/28 96/188/28
f 95/187/28 97/189/28 96/188/28
f 98/190/28 100/192/28 99/191/28
f 97/189/28 98/190/28 99/191/28
f 138/284/28 137/283/28 126/272/28
f 138/284/28 126/272/28 125/271/28
f 132/278/28 131/277/28 137/283/28
f 132/278/28 137/283/28 138/284/28
f 133/279/28 134/280/28 131/277/28
f 133/279/28 131/277/28 132/278/28
f 125/271/28 126/272/28 122/269/28
f 125/271/28 122/269/28 124/270/28
f 124/270/28 122/269/28 121/97/28
f 124/270/28 121/97/28 123/99/28
f 82/177/28 124/270/28 123/99/28
f 82/177/28 123/99/28 81/1/28
f 83/3/28 84/178/28 82/177/28
f 81/1/28 83/3/28 82/177/28
f 85/5/28 87/179/28 84/178/28
f 83/3/28 85/5/28 84/178/28
f 86/6/28 88/180/28 87/179/28
f 85/5/28 86/6/28 87/179/28
f 12/12/1 10/10/1 9/9/1
f 9/9/1 11/11/1 12/12/1
f 26/26/1 25/25/1 28/28/1
f 28/28/1 27/27/1 26/26/1
f 34/36/2 7/34/2 4/33/2
f 4/33/2 33/35/2 34/36/2
f 33/40/3 4/38/3 23/37/3
f 23/37/3 35/39/3 33/40/3
f 36/44/4 29/42/4 7/41/4
f 7/41/4 34/43/4 36/44/4
f 35/48/5 23/46/5 29/45/5
f 29/45/5 36/47/5 35/48/5
f 10/52/6 34/50/6 33/49/6
f 33/49/6 9/51/6 10/52/6
f 9/56/7 33/54/7 35/53/7
f 35/53/7 11/55/7 9/56/7
f 12/60/8 36/58/8 34/57/8
f 34/57/8 10/59/8 12/60/8
f 11/64/9 35/62/9 36/61/9
f 36/61/9 12/63/9 11/64/9
f 38/68/10 32/66/10 24/65/10
f 24/65/10 37/67/10 38/68/10
f 39/72/11 17/70/11 32/69/11
f 32/69/11 38/71/11 39/72/11
f 40/76/12 15/74/12 17/73/12
f 17/73/12 39/75/12 40/76/12
f 37/80/13 24/78/13 15/77/13
f 15/77/13 40/79/13 37/80/13
f 25/84/14 38/82/14 37/81/14
f 37/81/14 28/83/14 25/84/14
f 26/88/15 39/86/15 38/85/15
f 38/85/15 25/87/15 26/88/15
f 27/92/16 40/90/16 39/89/16
f 39/89/16 26/91/16 27/92/16
f 28/96/17 37/94/17 40/93/17
f 40/93/17 27/95/17 28/96/17
f 62/120/18 2/118/18 44/117/18
f 44/117/18 61/119/18 62/120/18
f 63/124/19 21/122/19 2/121/19
f 2/121/19 62/123/19 63/124/19
f 61/128/20 44/126/20 45/125/20
f 45/125/20 64/127/20 61/128/20
f 65/130/19 22/129/19 21/122/19
f 21/122/19 63/124/19 65/130/19
f 64/127/20 45/125/20 58/131/20
f 58/131/20 66/132/20 64/127/20
f 67/134/19 13/133/19 22/129/19
f 22/129/19 65/130/19 67/134/19
f 68/138/21 52/136/21 13/135/21
f 13/135/21 67/137/21 68/138/21
f 66/132/20 58/131/20 52/139/20
f 52/139/20 68/140/20 66/132/20
f 48/144/22 62/142/22 61/141/22
f 61/141/22 47/143/22 48/144/22
f 49/148/23 63/146/23 62/145/23
f 62/145/23 48/147/23 49/148/23
f 47/152/24 61/150/24 64/149/24
f 64/149/24 50/151/24 47/152/24
f 55/154/23 65/153/23 63/146/23
f 63/146/23 49/148/23 55/154/23
f 50/151/24 64/149/24 66/155/24
f 66/155/24 56/156/24 50/151/24
f 59/158/23 67/157/23 65/153/23
f 65/153/23 55/154/23 59/158/23
f 60/162/25 68/160/25 67/159/25
f 67/159/25 59/161/25 60/162/25
f 56/156/24 66/155/24 68/163/24
f 68/163/24 60/164/24 56/156/24
f 69/165/26 3/3/26 5/5/26
f 5/5/26 70/166/26 69/165/26
f 70/166/26 5/5/26 6/6/26
f 6/6/26 71/167/26 70/166/26
f 72/168/26 43/99/26 1/1/26
f 1/1/26 73/169/26 72/168/26
f 73/169/26 1/1/26 3/3/26
f 3/3/26 69/165/26 73/169/26
f 74/170/26 41/97/26 43/99/26
f 43/99/26 72/168/26 74/170/26
f 75/171/27 20/6/27 19/5/27
f 19/5/27 76/172/27 75/171/27
f 76/172/27 19/5/27 16/3/27
f 16/3/27 77/173/27 76/172/27
f 77/173/27 16/3/27 14/1/27
f 14/1/27 78/174/27 77/173/27
f 78/174/27 14/1/27 53/99/27
f 53/99/27 79/175/27 78/174/27
f 79/175/27 53/99/27 54/97/27
f 54/97/27 80/176/27 79/175/27
f 90/182/28 92/184/28 91/183/28
f 91/183/28 89/181/28 90/182/28
f 106/198/28 107/199/28 108/200/28
f 108/200/28 105/197/28 106/198/28
f 87/206/29 114/208/29 113/207/29
f 113/207/29 84/205/29 87/206/29
f 84/210/30 113/212/30 115/211/30
f 115/211/30 103/209/30 84/210/30
f 109/214/31 116/216/31 114/215/31
f 114/215/31 87/213/31 109/214/31
f 103/218/32 115/220/32 116/219/32
f 116/219/32 109/217/32 103/218/32
f 114/222/33 90/224/33 89/223/33
f 89/223/33 113/221/33 114/222/33
f 113/226/34 89/228/34 91/227/34
f 91/227/34 115/225/34 113/226/34
f 116/230/35 92/232/35 90/231/35
f 90/231/35 114/229/35 116/230/35
f 115/234/36 91/236/36 92/235/36
f 92/235/36 116/233/36 115/234/36
f 112/238/37 118/240/37 117/239/37
f 117/239/37 104/237/37 112/238/37
f 97/242/38 119/244/38 118/243/38
f 118/243/38 112/241/38 97/242/38
f 95/246/39 120/248/39 119/247/39
f 119/247/39 97/245/39 95/246/39
f 104/250/40 117/252/40 120/251/40
f 120/251/40 95/249/40 104/250/40
f 118/254/41 105/256/41 108/255/41
f 108/255/41 117/253/41 118/254/41
f 119/258/42 106/260/42 105/259/42
f 105/259/42 118/257/42 119/258/42
f 120/262/43 107/264/43 106/263/43
f 106/263/43 119/261/43 120/262/43
f 117/266/44 108/268/44 107/267/44
f 107/267/44 120/265/44 117/266/44
f 82/288/45 142/290/45 141/289/45
f 141/289/45 124/287/45 82/288/45
f 101/292/46 143/294/46 142/293/46
f 142/293/46 82/291/46 101/292/46
f 124/296/47 141/298/47 144/297/47
f 144/297/47 125/295/47 124/296/47
f 102/299/46 145/300/46 143/294/46
f 143/294/46 101/292/46 102/299/46
f 125/295/47 144/297/47 146/302/47
f 146/302/47 138/301/47 125/295/47
f 93/303/46 147/304/46 145/300/46
f 145/300/46 102/299/46 93/303/46
f 132/306/48 148/308/48 147/307/48
f 147/307/48 93/305/48 132/306/48
f 138/301/47 146/302/47 148/310/47
f 148/310/47 132/309/47 138/301/47
f 142/312/49 128/314/49 127/313/49
f 127/313/49 141/311/49 142/312/49
f 143/316/50 129/318/50 128/317/50
f 128/317/50 142/315/50 143/316/50
f 141/320/51 127/322/51 130/321/51
f 130/321/51 144/319/51 141/320/51
f 145/323/50 135/324/50 129/318/50
f 129/318/50 143/316/50 145/323/50
f 144/319/51 130/321/51 136/326/51
f 136/326/51 146/325/51 144/319/51
f 147/327/50 139/328/50 135/324/50
f 135/324/50 145/323/50 147/327/50
f 148/330/52 140/332/52 139/331/52
f 139/331/52 147/329/52 148/330/52
f 146/325/51 136/326/51 140/334/51
f 140/334/51 148/333/51 146/325/51
f 149/173/26 150/172/26 85/5/26
f 85/5/26 83/3/26 149/173/26
f 150/172/26 151/171/26 86/6/26
f 86/6/26 85/5/26 150/172/26
f 152/175/26 153/174/26 81/1/26
f 81/1/26 123/99/26 152/175/26
f 153/174/26 149/173/26 83/3/26
f 83/3/26 81/1/26 153/174/26
f 154/176/26 152/175/26 123/99/26
f 123/99/26 121/97/26 154/176/26
f 155/167/27 156/166/27 99/5/27
f 99/5/27 100/6/27 155/167/27
f 156/166/27 157/165/27 96/3/27
f 96/3/27 99/5/27 156/166/27
f 157/165/27 158/169/27 94/1/27
f 94/1/27 96/3/27 157/165/27
f 158/169/27 159/168/27 133/99/27
f 133/99/27 94/1/27 158/169/27
f 159/168/27 160/170/27 134/97/27
f 134/97/27 133/99/27 159/168/27

