# ProBuilder 4.0.5
# https://unity3d.com/unity/features/worldbuilding/probuilder
# 1/23/2020 2:58:42 PM

mtllib ./Key.mtl
o Key

g Key
v -0.02516127 0.01258062 0.28125
v -0.0625 0.01258062 0.3126001
v -0.02516127 0.04991938 0.28125
v -0.0625 0.04991938 0.3126001
v -0.125 0 -0.125
v 0 0 -0.125
v -0.125 0.0625 -0.125
v 0 0.0625 -0.125
v 0 0 0
v -0.125 0 0
v -0.02516127 0.01258062 5.960464E-05
v -0.09983873 0.01258062 5.960464E-05
v 0 0.0625 0
v -0.02516127 0.04991938 5.960464E-05
v -0.125 0.0625 0
v -0.09983873 0.04991938 5.960464E-05
v -0.02516127 0.01258062 0.1250999
v -0.09983873 0.01258062 0.1250999
v -0.02516127 0.04991938 0.1250999
v -0.09983873 0.04991938 0.1250999
v -0.02516127 0.01258062 0.1876001
v -0.09983873 0.01258062 0.1876001
v -0.02516127 0.04991938 0.1876001
v -0.1251001 0.01258062 0.1250999
v -0.1251001 0.04991938 0.1250999
v -0.1251001 0.01258062 0.1876001
v -0.1251001 0.04991938 0.1876001
v -0.09983873 0.04991938 0.1876001
v -0.02516127 0.01258062 0.2501001
v -0.09983873 0.01258062 0.2501001
v -0.02516127 0.04991938 0.2501001
v -0.09983873 0.04991938 0.2501001
v -0.1251001 0.01258062 0.2501001
v -0.1251001 0.04991938 0.2501001
v -0.1251001 0.01258062 0.3126001
v -0.1251001 0.04991938 0.3126001
v -0.15625 0 -0.0625
v -0.15625 0.0625 -0.0625
v 0.03125 0 -0.0625
v 0.03125 0.0625 -0.0625

vt -0.2001188 0.01258062
vt -0.2488734 0.01258062
vt -0.2001188 0.04991938
vt -0.2488734 0.04991938
vt 0.125 0
vt 0 0
vt 0.125 0.0625
vt 0 0.0625
vt -0.125 0
vt -0.02516127 0.01258076
vt -0.09983873 0.01258076
vt -0.02516134 0.04991938
vt -0.1249996 0
vt -0.1249996 0.0625
vt -0.09983832 0.04991938
vt -0.125 0.0624993
vt -0.02516127 5.960464E-05
vt -0.09983873 5.960464E-05
vt -0.02516127 0.1250999
vt -0.09983873 0.1250999
vt -5.960464E-05 0.04991938
vt -5.960464E-05 0.01258062
vt -0.1250999 0.04991938
vt -0.1250999 0.01258062
vt 0.1250999 0.01258062
vt 0.1250999 0.04991938
vt 0.09983873 5.960464E-05
vt 0.02516127 5.960464E-05
vt 0.09983873 0.1250999
vt 0.02516127 0.1250999
vt -0.02516127 0.1876001
vt -0.09983873 0.1876001
vt -0.1876001 0.04991938
vt -0.1876001 0.01258062
vt 0.1876001 0.01258062
vt 0.1876001 0.04991938
vt 0.09983873 0.1876001
vt 0.02516127 0.1876001
vt -0.02516127 0.2501001
vt -0.09983873 0.2501001
vt -0.2501001 0.04991938
vt -0.2501001 0.01258062
vt 0.2501001 0.01258062
vt 0.2501001 0.04991938
vt 0.09983873 0.2501001
vt 0.02516127 0.2501001
vt -0.02516127 0.28125
vt -0.0625 0.3126001
vt -0.28125 0.04991938
vt -0.28125 0.01258062
vt 0.3126001 0.01258062
vt 0.3126001 0.04991938
vt 0.0625 0.3126001
vt 0.02516127 0.28125
vt 0.09983873 0.01258062
vt 0.09983873 0.04991938
vt -0.1251001 0.1876001
vt -0.1251001 0.1250999
vt 0.1251001 0.1250999
vt 0.1251001 0.1876001
vt -0.1251001 0.3126001
vt -0.1251001 0.2501001
vt 0.1251001 0.2501001
vt 0.1251001 0.3126001
vt -0.0625 0.04991938
vt -0.0625 0.01258062
vt -0.0625 0
vt -0.0625 0.0625
vt 0.0625 0
vt 0.0625 0.0625
vt 0.15625 -0.0625
vt -0.03125 -0.0625
vt 0.125 -0.125
vt 0 -0.125
vt -0.125 -0.125
vt -0.15625 -0.0625
vt 0.03125 -0.0625

vn 0.6430189 0 0.7658503
vn 0 0 -1
vn 0 -0.004737762 0.9999888
vn 0.002368898 0 0.9999972
vn -0.002368898 0 0.9999972
vn 0 0.004737762 0.9999888
vn 0 -1 0
vn 1 0 0
vn -1 0 0
vn 0 1 0
vn 0 0 1
vn -0.8944272 0 0.4472136
vn -0.8944272 0 -0.4472136
vn 0.8944272 0 -0.4472136
vn 0.8944272 0 0.4472136

g Key
usemtl Key_Mat
f 3/3/1 4/4/1 2/2/1 1/1/1
f 7/7/2 8/8/2 6/6/2 5/5/2
f 11/10/3 12/11/3 10/9/3 9/6/3
f 14/12/4 11/10/4 9/6/4 13/8/4
f 12/11/5 16/15/5 15/14/5 10/13/5
f 16/15/6 14/12/6 13/8/6 15/16/6
f 17/19/7 18/20/7 12/18/7 11/17/7
f 19/23/8 17/24/8 11/22/8 14/21/8
f 18/25/9 20/26/9 16/21/9 12/22/9
f 20/29/10 19/30/10 14/28/10 16/27/10
f 21/31/7 22/32/7 18/20/7 17/19/7
f 23/33/8 21/34/8 17/24/8 19/23/8
f 26/35/9 27/36/9 25/26/9 24/25/9
f 28/37/10 23/38/10 19/30/10 20/29/10
f 29/39/7 30/40/7 22/32/7 21/31/7
f 31/41/8 29/42/8 21/34/8 23/33/8
f 30/43/9 32/44/9 28/36/9 22/35/9
f 32/45/10 31/46/10 23/38/10 28/37/10
f 1/47/7 2/48/7 30/40/7 29/39/7
f 3/49/8 1/50/8 29/42/8 31/41/8
f 35/51/9 36/52/9 34/44/9 33/43/9
f 4/53/10 3/54/10 31/46/10 32/45/10
f 24/25/2 25/26/2 20/56/2 18/55/2
f 26/57/7 24/58/7 18/20/7 22/32/7
f 25/59/10 27/60/10 28/37/10 20/29/10
f 27/23/11 26/24/11 22/11/11 28/15/11
f 33/25/2 34/26/2 32/56/2 30/55/2
f 35/61/7 33/62/7 30/40/7 2/48/7
f 34/63/10 36/64/10 4/53/10 32/45/10
f 36/23/11 35/24/11 2/66/11 4/65/11
f 15/8/12 38/68/12 37/67/12 10/6/12
f 38/68/13 7/16/13 5/9/13 37/67/13
f 6/5/14 8/7/14 40/70/14 39/69/14
f 39/69/15 40/70/15 13/8/15 9/6/15
f 15/5/10 13/6/10 40/72/10 38/71/10
f 38/71/10 40/72/10 8/74/10 7/73/10
f 6/74/7 39/77/7 37/76/7 5/75/7
f 39/77/7 9/6/7 10/9/7 37/76/7

