# ProBuilder 4.0.5
# https://unity3d.com/unity/features/worldbuilding/probuilder
# 1/23/2020 2:53:06 PM

mtllib ./Stand.mtl
o Stand

g Cube
v 0 0 0
v -0.5 0 0
v 0 1.25 0
v -0.5 1.25 0
v -0.5 0 -0.5
v -0.5 1.25 -0.5
v 0 0 -0.5
v 0 1.25 -0.5

vt 0 0
vt -0.5 0
vt 0 1.25
vt -0.5 1.25
vt 0.5 0
vt 0.5 1.25
vt 0 -0.5
vt 0.5 -0.5
vt -0.5 -0.5

vn 0 0 1
vn -1 0 0
vn 0 0 -1
vn 1 0 0
vn 0 1 0
vn 0 -1 0

g Cube
usemtl Lit
f 3/3/1 4/4/1 2/2/1 1/1/1
f 4/3/2 6/4/2 5/2/2 2/1/2
f 6/6/3 8/3/3 7/1/3 5/5/3
f 8/6/4 3/3/4 1/1/4 7/5/4
f 8/7/5 6/8/5 4/5/5 3/1/5
f 1/1/6 2/2/6 5/9/6 7/7/6

